<svg width="22" height="22" viewBox="0 0 22 22" fill="none" xmlns="http://www.w3.org/2000/svg">
<path id="Cancel icon" fill-rule="evenodd" clip-rule="evenodd" d="M3.07786 0.934081C2.4893 0.351074 1.53507 0.351074 0.946517 0.934081C0.357964 1.51709 0.357964 2.46233 0.946517 3.04534L8.9771 11.0003L0.94345 18.9552C0.354788 19.5381 0.354787 20.4832 0.94345 21.066C1.53211 21.6489 2.48652 21.6489 3.07519 21.066L11.1084 13.1115L18.9265 20.8559C19.515 21.4389 20.4693 21.4389 21.0578 20.8559C21.6464 20.2729 21.6464 19.3276 21.0578 18.7446L13.2402 11.0006L21.0585 3.25889C21.6472 2.67599 21.6472 1.73093 21.0585 1.14804C20.4699 0.565139 19.5155 0.565139 18.9268 1.14804L11.1088 8.88939L3.07786 0.934081Z" fill="white"/>
</svg>
