<svg width="30" height="30" viewBox="0 0 30 30" fill="none" xmlns="http://www.w3.org/2000/svg">
<g id="Edit icon">
<path id="Edit icon_2" fill-rule="evenodd" clip-rule="evenodd" d="M21.7119 4.07238L23.3665 2.41481L27.5879 6.64366L25.9337 8.30079L21.7119 4.07238ZM20.2989 5.48784L5.51664 20.2962L9.73849 24.5246L24.5208 9.71624L20.2989 5.48784ZM8.09978 25.7139L4.32289 21.9312L2.5429 27.4638L8.09978 25.7139ZM22.66 0.291626C23.0502 -0.0992424 23.6828 -0.0992433 24.073 0.291625L29.7074 5.93593C30.0976 6.3268 30.0976 6.96052 29.7074 7.35139L9.99795 27.0956C9.88416 27.2095 9.74459 27.2943 9.59108 27.3426L1.29885 29.9539C0.525292 30.1975 -0.200459 29.4652 0.0482797 28.692L2.70344 20.4392C2.75205 20.2881 2.83585 20.1508 2.9479 20.0385L22.66 0.291626Z" fill="white"/>
</g>
</svg>
