<svg width="40" height="44" viewBox="0 0 40 44" fill="none" xmlns="http://www.w3.org/2000/svg">
<path id="Union" fill-rule="evenodd" clip-rule="evenodd" d="M11.5 13.98C11.5 9.28556 15.3056 5.47998 20 5.47998C24.6944 5.47998 28.5 9.28556 28.5 13.98C28.5 18.6744 24.6944 22.48 20 22.48C15.3056 22.48 11.5 18.6744 11.5 13.98ZM20 0.47998C12.5442 0.47998 6.5 6.52414 6.5 13.98C6.5 18.5544 8.77518 22.5974 12.2557 25.0392C5.08022 27.9833 0 34.897 0 43.0342C0 43.1966 0.0020246 43.3586 0.00605005 43.52H5.0083C5.00278 43.3587 5 43.1967 5 43.0342C5 35.0841 11.6489 28.52 20 28.52C28.3511 28.52 35 35.0841 35 43.0342C35 43.1967 34.9972 43.3587 34.9917 43.52H39.9939C39.998 43.3586 40 43.1966 40 43.0342C40 34.897 34.9198 27.9833 27.7443 25.0392C31.2248 22.5974 33.5 18.5544 33.5 13.98C33.5 6.52414 27.4558 0.47998 20 0.47998Z" fill="#0074BD"/>
</svg>
